<svg xmlns="http://www.w3.org/2000/svg" xmlns:xlink="http://www.w3.org/1999/xlink" width="1636" zoomAndPan="magnify" viewBox="0 0 1227 831.749997" height="1109" preserveAspectRatio="xMidYMid meet" version="1.0"><defs><g/><clipPath id="2c0eac8d86"><rect x="0" width="190" y="0" height="56"/></clipPath></defs><path fill="#13df8c" d="M 953.082031 397.035156 L 957.152344 397.851562 L 957.152344 435.289062 C 954.632812 436.550781 951.976562 436.210938 949.210938 436.195312 L 947.238281 436.195312 C 945.082031 436.195312 942.921875 436.191406 940.765625 436.183594 L 936.28125 436.179688 C 932.347656 436.175781 928.410156 436.171875 924.472656 436.160156 C 920.457031 436.152344 916.441406 436.148438 912.425781 436.144531 C 904.546875 436.136719 896.664062 436.121094 888.78125 436.105469 L 888.734375 439.214844 C 888.671875 443.015625 888.597656 446.816406 888.523438 450.621094 C 888.492188 452.265625 888.464844 453.914062 888.4375 455.558594 C 888.402344 457.925781 888.355469 460.289062 888.304688 462.652344 L 888.277344 464.890625 L 888.226562 466.964844 L 888.195312 468.792969 L 887.96875 470.289062 L 886.339844 471.914062 C 884.664062 471.710938 884.664062 471.710938 883.085938 471.101562 C 882.105469 469.140625 882.167969 467.90625 882.164062 465.714844 L 882.15625 463.355469 L 882.164062 460.796875 L 882.160156 458.183594 C 882.160156 456.355469 882.164062 454.53125 882.164062 452.707031 C 882.167969 449.898438 882.164062 447.09375 882.160156 444.285156 C 882.160156 442.515625 882.160156 440.746094 882.164062 438.976562 L 882.15625 436.414062 L 882.167969 434.058594 L 882.167969 431.976562 L 882.269531 430.40625 L 883.085938 429.59375 C 885.214844 429.515625 887.324219 429.492188 889.453125 429.5 L 891.476562 429.5 C 893.691406 429.5 895.90625 429.507812 898.121094 429.511719 L 902.714844 429.515625 C 906.753906 429.519531 910.792969 429.527344 914.835938 429.535156 C 919.675781 429.546875 924.519531 429.550781 929.363281 429.554688 C 936.726562 429.5625 944.089844 429.578125 951.453125 429.59375 L 951.453125 397.851562 Z M 340.210938 475.171875 C 341.839844 475.140625 343.464844 475.136719 345.09375 475.171875 C 345.25 481.09375 345.398438 487.015625 345.53125 492.941406 C 345.578125 494.953125 345.628906 496.96875 345.683594 498.980469 C 345.761719 501.882812 345.824219 504.78125 345.890625 507.679688 L 345.96875 510.394531 L 346.019531 512.960938 L 346.074219 515.203125 C 345.90625 517.496094 345.90625 517.496094 344.28125 523.191406 L 251.496094 523.191406 L 250.679688 517.496094 L 251.496094 516.679688 C 252.640625 516.609375 253.785156 516.574219 254.929688 516.582031 L 257.175781 516.578125 L 259.65625 516.585938 L 262.253906 516.585938 C 265.105469 516.585938 267.953125 516.59375 270.804688 516.601562 L 276.710938 516.605469 C 281.90625 516.609375 287.101562 516.613281 292.296875 516.625 C 297.597656 516.632812 302.894531 516.636719 308.191406 516.640625 C 318.589844 516.648438 328.992188 516.664062 339.398438 516.679688 L 339.390625 515.140625 C 339.375 509.875 339.359375 504.605469 339.351562 499.339844 C 339.347656 497.371094 339.34375 495.402344 339.335938 493.433594 C 339.324219 490.609375 339.320312 487.789062 339.316406 484.964844 L 339.304688 482.28125 L 339.304688 479.8125 L 339.300781 477.628906 L 339.398438 475.984375 Z M 166.847656 319.714844 L 172.546875 319.714844 C 173.269531 322.203125 173.460938 324.425781 173.464844 327.011719 L 173.472656 329.441406 L 173.46875 332.046875 L 173.472656 334.742188 C 173.472656 336.621094 173.46875 338.5 173.464844 340.378906 C 173.460938 343.253906 173.464844 346.128906 173.472656 349.003906 C 173.472656 350.828125 173.46875 352.65625 173.46875 354.480469 L 173.472656 357.085938 L 173.464844 359.519531 L 173.464844 361.652344 C 173.359375 363.667969 173.359375 363.667969 172.546875 367.738281 L 103.363281 367.738281 L 103.363281 393.78125 L 98.480469 394.59375 L 97.667969 393.78125 L 97.667969 362.039062 L 166.847656 362.039062 Z M 166.847656 319.714844 " fill-opacity="1" fill-rule="nonzero"/><path fill="#13df8c" d="M 159.523438 318.902344 C 161.558594 319.15625 161.558594 319.15625 163.59375 319.714844 C 164.746094 322.023438 164.511719 323.976562 164.515625 326.550781 L 164.519531 329.71875 L 164.511719 331.371094 C 164.507812 333.03125 164.511719 334.691406 164.519531 336.351562 L 164.515625 339.523438 L 164.511719 342.4375 C 164.425781 344.539062 164.15625 346.199219 163.59375 348.203125 C 163.539062 349.898438 163.523438 351.59375 163.542969 353.289062 L 163.566406 355.949219 L 163.59375 357.96875 C 160.105469 358.824219 156.726562 358.894531 153.160156 358.875 L 151.257812 358.875 C 149.191406 358.875 147.125 358.871094 145.0625 358.863281 L 140.753906 358.859375 C 136.980469 358.855469 133.210938 358.847656 129.4375 358.839844 C 125.585938 358.832031 121.734375 358.828125 117.882812 358.824219 C 110.328125 358.816406 102.777344 358.800781 95.226562 358.785156 L 95.238281 361.820312 C 95.253906 365.53125 95.261719 369.242188 95.269531 372.953125 C 95.273438 374.558594 95.28125 376.167969 95.285156 377.773438 C 95.296875 380.082031 95.300781 382.386719 95.304688 384.695312 L 95.316406 386.882812 C 95.316406 391.96875 95.316406 391.96875 94.410156 393.78125 C 92.324219 394.289062 92.324219 394.289062 90.339844 394.59375 C 89.304688 392.824219 88.730469 391.523438 88.546875 389.464844 L 88.605469 387.382812 L 88.65625 384.980469 L 88.734375 382.476562 L 88.785156 380.160156 C 88.855469 377.304688 88.9375 374.453125 89.019531 371.601562 L 89.527344 352.273438 L 157.082031 352.273438 L 157.082031 323.785156 C 158.710938 319.714844 158.710938 319.714844 159.523438 318.902344 M 953.894531 318.902344 L 957.964844 320.53125 L 957.964844 357.96875 L 889.597656 358.785156 L 888.78125 393.78125 L 884.714844 394.59375 L 883.085938 393.78125 C 883.066406 388 883.050781 382.21875 883.039062 376.441406 C 883.035156 374.472656 883.03125 372.503906 883.023438 370.535156 C 883.015625 367.710938 883.007812 364.890625 883.003906 362.066406 L 882.992188 359.382812 L 882.992188 356.914062 L 882.988281 354.730469 L 883.085938 353.085938 L 883.898438 352.273438 C 886.003906 352.171875 888.085938 352.121094 890.191406 352.105469 L 892.191406 352.082031 C 894.378906 352.054688 896.566406 352.035156 898.757812 352.015625 L 903.296875 351.964844 C 907.289062 351.917969 911.277344 351.878906 915.269531 351.839844 C 919.339844 351.796875 923.410156 351.753906 927.480469 351.707031 C 935.472656 351.621094 943.464844 351.539062 951.453125 351.457031 L 951.441406 348.894531 C 951.425781 345.753906 951.414062 342.609375 951.410156 339.464844 C 951.402344 338.105469 951.398438 336.75 951.390625 335.390625 C 951.382812 333.433594 951.375 331.476562 951.375 329.519531 L 951.363281 327.683594 C 951.359375 322 951.359375 322 952.265625 319.714844 Z M 953.894531 318.902344 " fill-opacity="1" fill-rule="nonzero"/><path fill="#13df8c" d="M 962.847656 318.902344 C 964.984375 319.664062 964.984375 319.664062 966.917969 320.53125 C 966.9375 326.445312 966.949219 332.359375 966.960938 338.273438 C 966.964844 341.019531 966.96875 343.765625 966.976562 346.511719 C 966.988281 349.667969 966.992188 352.824219 966.996094 355.980469 L 967.007812 358.976562 L 967.007812 361.738281 L 967.015625 364.183594 C 966.917969 366.109375 966.917969 366.109375 966.105469 367.738281 L 897.734375 368.550781 L 897.734375 384.828125 C 897.277344 391.007812 897.277344 391.007812 896.921875 393.78125 L 892.039062 393.78125 C 891.355469 390.511719 891.179688 388.070312 892.039062 384.828125 L 890.410156 384.828125 L 890.816406 381.625 C 891.308594 376.890625 891.269531 372.1875 891.195312 367.433594 C 891.175781 365.90625 891.195312 364.378906 891.222656 362.851562 L 892.039062 362.039062 C 894.160156 361.941406 896.28125 361.886719 898.40625 361.871094 L 900.429688 361.847656 C 902.644531 361.824219 904.859375 361.800781 907.074219 361.78125 L 911.667969 361.730469 C 915.707031 361.6875 919.746094 361.644531 923.785156 361.605469 C 928.628906 361.558594 933.472656 361.503906 938.3125 361.453125 C 945.679688 361.371094 953.042969 361.300781 960.40625 361.226562 L 961.21875 319.714844 Z M 962.035156 397.035156 L 966.105469 397.851562 L 966.105469 445.058594 L 897.734375 445.871094 L 896.921875 471.101562 L 892.039062 471.101562 C 890.75 468.527344 891.109375 465.761719 891.117188 462.933594 L 891.113281 460.976562 C 891.113281 459.609375 891.113281 458.246094 891.117188 456.878906 C 891.121094 454.777344 891.117188 452.679688 891.113281 450.582031 C 891.113281 449.257812 891.113281 447.929688 891.117188 446.605469 L 891.109375 444.691406 C 891.117188 443.183594 891.167969 441.679688 891.222656 440.171875 L 892.039062 439.359375 C 894.167969 439.28125 896.277344 439.257812 898.40625 439.265625 L 900.429688 439.265625 C 902.640625 439.265625 904.859375 439.273438 907.074219 439.28125 L 911.667969 439.285156 C 915.707031 439.289062 919.746094 439.292969 923.785156 439.304688 C 927.90625 439.3125 932.023438 439.316406 936.144531 439.320312 C 944.230469 439.328125 952.316406 439.34375 960.40625 439.359375 L 960.394531 437.863281 C 960.359375 432.726562 960.332031 427.589844 960.316406 422.453125 C 960.308594 420.535156 960.296875 418.621094 960.285156 416.703125 C 960.265625 413.949219 960.253906 411.195312 960.246094 408.441406 L 960.222656 405.835938 L 960.222656 403.417969 L 960.210938 401.285156 C 960.40625 399.480469 960.40625 399.480469 962.035156 397.035156 M 167.664062 474.359375 C 169.296875 474.589844 170.925781 474.863281 172.546875 475.171875 C 173.242188 480.582031 173.480469 485.859375 173.46875 491.316406 L 173.472656 493.785156 C 173.472656 495.492188 173.46875 497.203125 173.464844 498.910156 C 173.460938 501.53125 173.464844 504.148438 173.472656 506.769531 C 173.472656 508.433594 173.46875 510.101562 173.46875 511.765625 L 173.472656 514.140625 L 173.464844 516.339844 L 173.464844 518.269531 C 173.359375 519.9375 173.359375 519.9375 172.546875 522.378906 L 78.132812 523.191406 L 77.320312 517.496094 C 79.613281 516.730469 80.988281 516.578125 83.359375 516.582031 L 85.589844 516.578125 L 88.03125 516.585938 L 90.609375 516.585938 C 93.421875 516.585938 96.234375 516.59375 99.050781 516.601562 L 104.898438 516.605469 C 110.03125 516.609375 115.164062 516.613281 120.300781 516.625 C 125.535156 516.632812 130.773438 516.636719 136.011719 516.640625 C 146.289062 516.648438 156.570312 516.664062 166.847656 516.679688 L 166.84375 515.109375 C 166.824219 509.738281 166.8125 504.363281 166.804688 498.988281 C 166.800781 496.984375 166.792969 494.976562 166.789062 492.96875 C 166.777344 490.089844 166.773438 487.210938 166.769531 484.332031 L 166.757812 481.59375 L 166.757812 479.074219 L 166.75 476.84375 L 166.847656 475.171875 Z M 167.664062 474.359375 " fill-opacity="1" fill-rule="nonzero"/><path fill="#1cf79a" d="M 962.035156 474.359375 L 966.917969 475.984375 C 966.9375 481.898438 966.949219 487.8125 966.960938 493.726562 C 966.964844 496.476562 966.96875 499.222656 966.976562 501.96875 C 966.988281 505.125 966.992188 508.277344 966.996094 511.433594 L 967.007812 514.429688 L 967.007812 517.195312 L 967.015625 519.636719 C 966.917969 521.5625 966.917969 521.5625 966.105469 523.191406 C 947.511719 523.253906 928.921875 523.101562 910.332031 522.890625 C 906.34375 522.84375 902.355469 522.800781 898.367188 522.761719 C 895.269531 522.730469 892.171875 522.695312 889.078125 522.660156 C 887.605469 522.644531 886.128906 522.628906 884.65625 522.613281 C 882.625 522.59375 880.59375 522.570312 878.558594 522.542969 L 876.722656 522.53125 C 875.316406 522.511719 873.910156 522.449219 872.503906 522.378906 L 871.691406 521.5625 C 871.65625 520.207031 871.65625 518.851562 871.691406 517.496094 C 873.601562 516.539062 874.722656 516.582031 876.851562 516.582031 L 879.097656 516.578125 L 881.570312 516.585938 L 884.171875 516.585938 C 887.015625 516.585938 889.859375 516.59375 892.707031 516.601562 L 898.609375 516.605469 C 903.800781 516.609375 908.988281 516.613281 914.179688 516.625 C 919.46875 516.632812 924.761719 516.636719 930.054688 516.640625 C 940.441406 516.648438 950.832031 516.664062 961.21875 516.679688 L 961.214844 515.109375 C 961.195312 509.738281 961.183594 504.363281 961.175781 498.988281 C 961.171875 496.984375 961.164062 494.976562 961.160156 492.96875 C 961.148438 490.089844 961.144531 487.210938 961.140625 484.332031 L 961.128906 481.59375 L 961.128906 479.074219 L 961.121094 476.84375 L 961.21875 475.171875 Z M 962.035156 474.359375 " fill-opacity="1" fill-rule="nonzero"/><path fill="#13df8c" d="M 159.523438 474.359375 L 163.59375 475.171875 L 163.59375 512.609375 C 161.730469 513.542969 160.699219 513.527344 158.628906 513.535156 L 156.511719 513.542969 L 154.183594 513.542969 L 151.738281 513.550781 C 149.0625 513.558594 146.382812 513.5625 143.703125 513.5625 L 138.136719 513.570312 C 134.246094 513.574219 130.355469 513.578125 126.460938 513.574219 C 121.464844 513.574219 116.46875 513.585938 111.46875 513.601562 C 107.636719 513.609375 103.804688 513.613281 99.972656 513.609375 C 98.128906 513.609375 96.289062 513.613281 94.445312 513.621094 C 91.871094 513.628906 89.300781 513.628906 86.726562 513.621094 C 85.574219 513.628906 85.574219 513.628906 84.398438 513.636719 L 82.285156 513.625 L 80.4375 513.628906 L 78.945312 513.425781 L 77.320312 511.796875 L 78.132812 506.914062 L 157.082031 506.097656 L 157.082031 493.890625 C 157.160156 490.683594 157.25 487.484375 157.386719 484.277344 C 157.410156 483.492188 157.4375 482.707031 157.464844 481.898438 L 157.558594 479.632812 L 157.636719 477.621094 L 157.894531 475.984375 Z M 953.082031 474.359375 C 954.441406 474.601562 955.800781 474.875 957.152344 475.171875 L 957.964844 475.984375 C 958.039062 477.132812 958.058594 478.289062 958.058594 479.441406 L 958.058594 481.660156 L 958.042969 484.078125 L 958.039062 486.535156 C 958.035156 489.140625 958.027344 491.746094 958.015625 494.347656 C 958.011719 496.109375 958.007812 497.871094 958.003906 499.632812 C 957.996094 503.957031 957.980469 508.285156 957.964844 512.609375 C 956.109375 513.539062 955.09375 513.527344 953.035156 513.527344 L 950.945312 513.535156 L 948.644531 513.53125 L 946.226562 513.535156 C 943.578125 513.535156 940.929688 513.535156 938.28125 513.53125 L 932.777344 513.535156 C 928.925781 513.535156 925.078125 513.535156 921.226562 513.53125 C 916.285156 513.527344 911.34375 513.527344 906.402344 513.535156 C 902.613281 513.535156 898.820312 513.535156 895.03125 513.535156 C 893.207031 513.535156 891.386719 513.535156 889.566406 513.535156 C 887.019531 513.535156 884.476562 513.535156 881.929688 513.53125 L 879.636719 513.535156 L 877.535156 513.527344 L 875.710938 513.527344 C 874.132812 513.425781 874.132812 513.425781 871.691406 512.609375 C 871.65625 510.984375 871.65625 509.355469 871.691406 507.726562 L 872.503906 506.914062 C 874.980469 506.835938 877.441406 506.8125 879.917969 506.820312 L 882.277344 506.820312 C 884.863281 506.820312 887.445312 506.828125 890.03125 506.832031 L 895.394531 506.835938 C 900.105469 506.839844 904.820312 506.847656 909.535156 506.855469 C 914.34375 506.863281 919.148438 506.871094 923.953125 506.875 C 933.390625 506.882812 942.828125 506.894531 952.265625 506.914062 L 952.253906 504.101562 C 952.238281 500.664062 952.230469 497.226562 952.222656 493.789062 C 952.21875 492.300781 952.210938 490.8125 952.207031 489.320312 C 952.195312 487.183594 952.191406 485.046875 952.1875 482.910156 L 952.175781 480.886719 C 952.175781 476.171875 952.175781 476.171875 953.082031 474.359375 M 332.070312 474.359375 C 334.105469 474.664062 334.105469 474.664062 336.140625 475.171875 L 336.953125 475.984375 C 337.039062 477.101562 337.066406 478.21875 337.074219 479.339844 L 337.089844 481.496094 L 337.089844 483.839844 L 337.101562 486.234375 C 337.105469 487.910156 337.105469 489.582031 337.105469 491.257812 C 337.105469 493.828125 337.121094 496.394531 337.136719 498.964844 C 337.140625 500.585938 337.140625 502.210938 337.140625 503.832031 L 337.160156 506.171875 L 337.152344 508.335938 L 337.15625 510.246094 L 336.953125 511.796875 L 335.328125 513.425781 C 333.835938 513.628906 333.835938 513.628906 331.988281 513.625 L 329.875 513.636719 L 327.546875 513.621094 L 325.101562 513.628906 C 322.421875 513.628906 319.742188 513.625 317.066406 513.613281 L 311.5 513.613281 C 307.609375 513.609375 303.714844 513.605469 299.824219 513.59375 C 294.828125 513.578125 289.828125 513.574219 284.832031 513.574219 C 281 513.574219 277.167969 513.570312 273.335938 513.566406 C 271.492188 513.5625 269.648438 513.5625 267.804688 513.5625 C 265.234375 513.558594 262.660156 513.550781 260.089844 513.542969 L 257.761719 513.542969 L 255.644531 513.535156 L 253.800781 513.53125 C 252.308594 513.425781 252.308594 513.425781 250.679688 512.609375 C 250.644531 510.984375 250.648438 509.355469 250.679688 507.726562 L 251.496094 506.914062 C 253.972656 506.835938 256.429688 506.8125 258.910156 506.820312 L 261.265625 506.820312 C 263.851562 506.820312 266.4375 506.828125 269.023438 506.832031 L 274.382812 506.835938 C 279.097656 506.839844 283.8125 506.847656 288.527344 506.855469 C 293.332031 506.863281 298.136719 506.871094 302.945312 506.875 C 312.382812 506.882812 321.820312 506.894531 331.257812 506.914062 L 331.246094 504.011719 C 331.230469 500.472656 331.21875 496.933594 331.210938 493.394531 C 331.207031 491.863281 331.203125 490.328125 331.195312 488.792969 C 331.1875 486.59375 331.183594 484.394531 331.179688 482.195312 L 331.164062 480.101562 C 331.164062 478.457031 331.207031 476.816406 331.257812 475.171875 Z M 1125.628906 397.035156 C 1127.765625 396.933594 1127.765625 396.933594 1129.699219 397.035156 C 1130.734375 401.007812 1130.617188 404.914062 1130.59375 408.980469 L 1130.589844 411.261719 C 1130.582031 413.660156 1130.574219 416.054688 1130.5625 418.453125 C 1130.558594 420.082031 1130.554688 421.710938 1130.550781 423.335938 C 1130.542969 427.320312 1130.53125 431.304688 1130.511719 435.289062 C 1127.714844 436.6875 1124.503906 436.203125 1121.425781 436.183594 L 1119.1875 436.179688 C 1116.824219 436.175781 1114.460938 436.164062 1112.097656 436.15625 C 1110.496094 436.152344 1108.898438 436.148438 1107.296875 436.144531 C 1103.371094 436.136719 1099.441406 436.121094 1095.515625 436.105469 L 1095.527344 439.214844 C 1095.542969 443.015625 1095.550781 446.816406 1095.558594 450.621094 C 1095.5625 452.265625 1095.570312 453.914062 1095.574219 455.558594 C 1095.585938 457.921875 1095.589844 460.289062 1095.59375 462.652344 L 1095.605469 464.890625 L 1095.605469 466.964844 L 1095.613281 468.792969 C 1095.515625 470.289062 1095.515625 470.289062 1094.699219 471.914062 C 1093.34375 471.949219 1091.988281 471.949219 1090.632812 471.914062 L 1089.816406 471.101562 C 1089.746094 469.800781 1089.714844 468.5 1089.722656 467.199219 L 1089.722656 464.679688 L 1089.738281 461.941406 L 1089.742188 459.152344 C 1089.746094 456.203125 1089.757812 453.25 1089.765625 450.296875 C 1089.769531 448.300781 1089.773438 446.304688 1089.777344 444.308594 C 1089.785156 439.402344 1089.800781 434.5 1089.816406 429.59375 L 1124 429.59375 C 1123.9375 419.488281 1123.9375 419.488281 1123.855469 409.382812 C 1123.851562 408.117188 1123.84375 406.855469 1123.84375 405.589844 L 1123.816406 403.589844 C 1123.816406 401.949219 1123.902344 400.304688 1124 398.664062 Z M 745.535156 397.035156 C 747.671875 396.933594 747.671875 396.933594 749.605469 397.035156 C 749.625 402.46875 749.640625 407.902344 749.648438 413.335938 C 749.652344 415.183594 749.660156 417.035156 749.664062 418.886719 C 749.675781 421.539062 749.679688 424.191406 749.683594 426.84375 L 749.695312 429.367188 L 749.695312 431.6875 L 749.703125 433.738281 L 749.605469 435.289062 L 748.789062 436.105469 C 746.382812 436.175781 743.996094 436.199219 741.589844 436.183594 L 739.652344 436.179688 C 737.257812 436.175781 734.859375 436.164062 732.460938 436.15625 L 716.234375 436.105469 L 715.421875 471.101562 L 712.164062 471.914062 C 710.757812 470.984375 710.757812 470.984375 709.722656 469.472656 C 709.425781 467.703125 709.425781 467.703125 709.433594 465.625 L 709.425781 463.261719 L 709.457031 460.71875 L 709.460938 458.105469 C 709.46875 456.285156 709.476562 454.464844 709.492188 452.644531 C 709.519531 449.84375 709.527344 447.046875 709.53125 444.246094 L 709.558594 438.945312 L 709.570312 436.394531 L 709.59375 434.046875 L 709.609375 431.972656 L 709.722656 430.40625 L 710.539062 429.59375 C 713.003906 429.519531 715.449219 429.5 717.917969 429.511719 L 720.15625 429.515625 C 722.53125 429.519531 724.902344 429.53125 727.273438 429.542969 C 728.878906 429.546875 730.480469 429.550781 732.085938 429.554688 C 736.027344 429.5625 739.964844 429.574219 743.90625 429.59375 L 743.882812 426.78125 C 743.851562 423.34375 743.832031 419.90625 743.816406 416.46875 C 743.808594 414.980469 743.800781 413.488281 743.785156 412 C 743.765625 409.863281 743.757812 407.726562 743.75 405.589844 L 743.722656 403.5625 C 743.722656 401.929688 743.808594 400.296875 743.90625 398.664062 Z M 745.535156 397.035156 " fill-opacity="1" fill-rule="nonzero"/><path fill="#13df8c" d="M 754.488281 397.035156 C 756.523438 397.34375 756.523438 397.34375 758.558594 397.851562 L 759.371094 398.664062 C 759.453125 400.054688 759.476562 401.449219 759.476562 402.839844 L 759.484375 405.539062 L 759.480469 408.480469 L 759.484375 411.476562 C 759.484375 413.570312 759.480469 415.667969 759.476562 417.761719 C 759.472656 420.980469 759.476562 424.195312 759.484375 427.414062 C 759.484375 429.445312 759.480469 431.476562 759.480469 433.507812 L 759.484375 436.441406 L 759.476562 439.148438 L 759.476562 441.539062 C 759.371094 443.429688 759.371094 443.429688 758.558594 445.058594 C 754.210938 445.8125 749.945312 445.984375 745.535156 445.949219 L 743.757812 445.945312 C 741.90625 445.941406 740.058594 445.933594 738.210938 445.921875 C 736.945312 445.917969 735.679688 445.914062 734.417969 445.910156 C 731.339844 445.902344 728.265625 445.886719 725.1875 445.871094 L 725.199219 448.011719 C 725.214844 450.628906 725.226562 453.25 725.230469 455.867188 C 725.238281 457 725.242188 458.132812 725.25 459.265625 C 725.257812 460.894531 725.265625 462.523438 725.265625 464.152344 L 725.28125 467.121094 C 725.1875 469.472656 725.1875 469.472656 724.375 471.101562 C 722.390625 471.710938 722.390625 471.710938 720.304688 471.914062 L 718.675781 470.289062 C 718.527344 468.257812 718.464844 466.226562 718.488281 464.191406 L 718.488281 462.359375 C 718.492188 461.078125 718.5 459.800781 718.507812 458.519531 C 718.523438 456.566406 718.523438 454.613281 718.523438 452.660156 C 718.53125 451.414062 718.535156 450.171875 718.539062 448.929688 L 718.542969 447.160156 C 718.570312 444.367188 718.804688 442.097656 719.492188 439.359375 L 752.859375 439.359375 C 752.828125 428.742188 752.828125 428.742188 752.789062 418.128906 L 752.78125 414.085938 L 752.769531 412.027344 C 752.769531 407.285156 752.917969 402.539062 753.675781 397.851562 Z M 1133.769531 397.035156 L 1138.652344 397.035156 L 1139.464844 397.851562 C 1139.546875 399.265625 1139.570312 400.683594 1139.570312 402.101562 L 1139.578125 404.851562 L 1139.574219 407.84375 L 1139.574219 410.894531 C 1139.574219 413.578125 1139.574219 416.257812 1139.570312 418.941406 C 1139.566406 420.585938 1139.570312 422.230469 1139.570312 423.878906 C 1139.574219 427.027344 1139.578125 430.179688 1139.574219 433.328125 L 1139.578125 436.316406 L 1139.570312 439.074219 L 1139.570312 441.507812 C 1139.464844 443.429688 1139.464844 443.429688 1138.652344 445.058594 L 1104.46875 445.058594 L 1104.46875 471.101562 L 1099.582031 471.914062 L 1098.769531 471.101562 C 1098.6875 468.824219 1098.65625 466.5625 1098.660156 464.285156 L 1098.660156 462.214844 C 1098.660156 460.765625 1098.660156 459.316406 1098.664062 457.871094 C 1098.667969 455.648438 1098.664062 453.421875 1098.660156 451.199219 C 1098.660156 449.796875 1098.660156 448.394531 1098.660156 446.988281 L 1098.65625 444.960938 C 1098.667969 443.363281 1098.707031 441.769531 1098.769531 440.171875 L 1099.582031 439.359375 C 1102.050781 439.289062 1104.496094 439.265625 1106.960938 439.28125 L 1108.949219 439.28125 C 1111.40625 439.289062 1113.863281 439.296875 1116.320312 439.308594 L 1132.953125 439.359375 Z M 537.988281 352.273438 L 597.40625 352.273438 L 597.40625 357.96875 C 579.457031 359.007812 561.636719 358.582031 543.6875 357.96875 L 543.691406 359.324219 C 543.710938 363.957031 543.722656 368.589844 543.730469 373.226562 C 543.734375 374.957031 543.742188 376.6875 543.746094 378.417969 C 543.757812 380.902344 543.761719 383.382812 543.765625 385.867188 L 543.777344 388.230469 L 543.777344 390.402344 L 543.785156 392.324219 L 543.6875 393.78125 L 542.871094 394.59375 C 541.515625 394.628906 540.160156 394.628906 538.804688 394.59375 C 537.753906 393.054688 537.210938 391.6875 537.023438 389.828125 C 536.980469 387.929688 536.964844 386.03125 536.988281 384.128906 L 536.988281 382 C 536.992188 380.511719 537 379.027344 537.007812 377.542969 C 537.023438 375.285156 537.023438 373.027344 537.023438 370.769531 C 537.027344 369.320312 537.03125 367.875 537.039062 366.425781 L 537.042969 364.402344 L 537.058594 362.460938 L 537.066406 360.78125 C 537.222656 357.933594 537.636719 355.101562 537.988281 352.273438 M 1125.628906 318.902344 C 1127.613281 319.207031 1127.613281 319.207031 1129.699219 319.714844 C 1131 322.316406 1130.625 325.132812 1130.617188 327.992188 L 1130.621094 330.070312 C 1130.625 332.351562 1130.625 334.628906 1130.621094 336.90625 L 1130.625 341.644531 C 1130.625 344.957031 1130.621094 348.273438 1130.617188 351.585938 C 1130.613281 355.835938 1130.617188 360.089844 1130.621094 364.339844 C 1130.625 367.601562 1130.625 370.867188 1130.621094 374.128906 C 1130.621094 375.695312 1130.621094 377.265625 1130.625 378.832031 C 1130.625 381.023438 1130.621094 383.210938 1130.617188 385.402344 L 1130.625 387.375 C 1130.613281 389.996094 1130.535156 392.089844 1129.699219 394.59375 C 1127.765625 394.75 1127.765625 394.75 1125.628906 394.59375 C 1124 392.152344 1124 392.152344 1123.792969 389.1875 C 1123.785156 387.929688 1123.785156 386.671875 1123.789062 385.414062 L 1123.78125 383.332031 C 1123.773438 381.058594 1123.78125 378.785156 1123.785156 376.511719 L 1123.78125 371.777344 C 1123.777344 368.46875 1123.78125 365.160156 1123.789062 361.851562 C 1123.796875 357.605469 1123.792969 353.359375 1123.78125 349.117188 C 1123.777344 345.855469 1123.777344 342.597656 1123.78125 339.339844 C 1123.785156 337.773438 1123.785156 336.207031 1123.777344 334.640625 C 1123.773438 332.453125 1123.78125 330.269531 1123.789062 328.082031 L 1123.78125 326.113281 C 1123.792969 324.523438 1123.890625 322.933594 1124 321.34375 Z M 788.671875 319.714844 C 790.605469 319.613281 790.605469 319.613281 792.742188 319.714844 L 794.371094 321.34375 C 794.527344 323.5625 794.582031 325.695312 794.566406 327.914062 L 794.570312 329.972656 C 794.574219 332.226562 794.566406 334.476562 794.558594 336.730469 L 794.558594 341.414062 C 794.554688 344.6875 794.546875 347.960938 794.539062 351.238281 C 794.523438 355.441406 794.519531 359.640625 794.519531 363.84375 C 794.519531 367.070312 794.515625 370.292969 794.511719 373.519531 L 794.503906 378.167969 C 794.503906 380.332031 794.496094 382.5 794.488281 384.664062 L 794.488281 386.613281 C 794.472656 389.214844 794.386719 391.292969 793.554688 393.78125 L 789.484375 394.59375 C 788.054688 392.425781 787.835938 391.011719 787.65625 388.375 C 787.648438 387.164062 787.652344 385.957031 787.660156 384.746094 L 787.65625 382.738281 C 787.652344 380.554688 787.660156 378.367188 787.671875 376.179688 L 787.671875 371.621094 C 787.671875 368.433594 787.679688 365.25 787.691406 362.0625 C 787.703125 357.980469 787.707031 353.894531 787.707031 349.8125 C 787.707031 346.675781 787.710938 343.535156 787.71875 340.394531 L 787.722656 335.878906 C 787.726562 333.773438 787.730469 331.671875 787.742188 329.566406 L 787.738281 327.679688 C 787.753906 324.914062 787.804688 322.359375 788.671875 319.714844 M 718.675781 319.714844 L 724.375 319.714844 C 725.453125 322.972656 725.300781 326.277344 725.292969 329.667969 L 725.296875 331.703125 C 725.300781 333.925781 725.300781 336.144531 725.296875 338.367188 L 725.296875 342.992188 C 725.300781 346.226562 725.296875 349.457031 725.292969 352.6875 C 725.289062 356.832031 725.292969 360.980469 725.296875 365.128906 C 725.300781 368.3125 725.300781 371.496094 725.296875 374.679688 C 725.296875 376.210938 725.296875 377.738281 725.296875 379.269531 C 725.300781 381.402344 725.296875 383.535156 725.292969 385.671875 L 725.296875 387.597656 C 725.28125 391.96875 725.28125 391.96875 724.375 393.78125 L 719.492188 393.78125 C 718.503906 385.761719 718.574219 377.773438 718.597656 369.710938 L 718.601562 365.371094 C 718.605469 361.589844 718.609375 357.808594 718.621094 354.03125 C 718.628906 350.160156 718.632812 346.292969 718.636719 342.425781 C 718.644531 334.855469 718.660156 327.285156 718.675781 319.714844 M 443.578125 397.035156 C 445.714844 396.933594 445.714844 396.933594 447.644531 397.035156 C 448.410156 400.917969 448.585938 404.691406 448.589844 408.636719 L 448.601562 410.625 C 448.613281 412.777344 448.621094 414.933594 448.625 417.089844 L 448.640625 421.59375 C 448.648438 424.734375 448.652344 427.875 448.65625 431.015625 C 448.660156 435.046875 448.679688 439.074219 448.703125 443.101562 C 448.71875 446.199219 448.722656 449.300781 448.722656 452.398438 C 448.726562 453.882812 448.730469 455.367188 448.742188 456.855469 C 448.757812 458.925781 448.753906 461 448.75 463.074219 L 448.773438 464.9375 C 448.757812 466.648438 448.757812 466.648438 448.460938 469.472656 C 447.222656 471.09375 447.222656 471.09375 446.019531 471.914062 L 441.949219 470.289062 C 441.910156 460.976562 441.882812 451.667969 441.863281 442.355469 C 441.855469 438.035156 441.84375 433.710938 441.824219 429.390625 C 441.808594 425.21875 441.796875 421.050781 441.792969 416.882812 C 441.792969 415.289062 441.785156 413.695312 441.777344 412.101562 C 441.765625 409.875 441.761719 407.648438 441.765625 405.425781 L 441.746094 403.414062 C 441.75 401.828125 441.84375 400.246094 441.949219 398.664062 Z M 443.578125 397.035156 " fill-opacity="1" fill-rule="nonzero"/><path fill="#13df8c" d="M 546.941406 362.039062 L 597.40625 362.039062 L 598.21875 363.667969 L 597.40625 367.738281 L 552.640625 367.738281 C 552.738281 375.964844 552.738281 375.964844 552.859375 384.195312 L 552.878906 387.289062 L 552.917969 390.464844 L 552.640625 392.96875 L 550.199219 394.59375 C 548.011719 394.695312 548.011719 394.695312 546.128906 394.59375 C 546.109375 391.003906 546.09375 387.414062 546.082031 383.824219 C 546.078125 382.605469 546.074219 381.386719 546.066406 380.167969 C 546.058594 378.40625 546.054688 376.644531 546.046875 374.882812 L 546.035156 371.679688 C 546.132812 368.453125 546.542969 365.242188 546.941406 362.039062 M 262.074219 318.902344 L 266.960938 319.714844 C 267.664062 323.964844 267.886719 328.035156 267.867188 332.335938 L 267.867188 334.359375 C 267.867188 336.546875 267.859375 338.738281 267.851562 340.925781 L 267.847656 345.5 C 267.84375 349.5 267.839844 353.496094 267.828125 357.496094 C 267.820312 361.585938 267.816406 365.671875 267.8125 369.757812 C 267.804688 377.765625 267.789062 385.773438 267.773438 393.78125 C 265.890625 394.339844 265.890625 394.339844 263.703125 394.59375 L 262.246094 393.839844 C 261.007812 391.714844 260.96875 389.871094 260.949219 387.445312 L 260.972656 385.503906 L 260.964844 383.449219 C 260.964844 381.203125 260.980469 378.960938 260.996094 376.71875 C 260.996094 375.160156 261 373.601562 261 372.042969 C 261.003906 368.777344 261.015625 365.507812 261.03125 362.242188 C 261.054688 358.054688 261.066406 353.867188 261.066406 349.679688 C 261.074219 346.460938 261.078125 343.242188 261.089844 340.023438 C 261.09375 338.480469 261.097656 336.933594 261.101562 335.390625 C 261.105469 333.230469 261.117188 331.074219 261.128906 328.914062 L 261.132812 326.976562 C 261.15625 324.148438 261.320312 321.625 262.074219 318.902344 M 710.539062 319.714844 C 712.164062 319.683594 713.792969 319.679688 715.421875 319.714844 C 716.429688 344.378906 716.972656 369.128906 715.421875 393.78125 C 713.945312 394.339844 713.945312 394.339844 712.164062 394.59375 C 710.851562 393.816406 710.851562 393.816406 709.722656 392.152344 C 709.496094 389.878906 709.402344 387.597656 709.433594 385.3125 L 709.429688 383.199219 C 709.425781 380.890625 709.441406 378.585938 709.457031 376.277344 C 709.460938 374.675781 709.460938 373.074219 709.460938 371.476562 C 709.464844 368.121094 709.476562 364.769531 709.492188 361.414062 C 709.519531 357.105469 709.527344 352.796875 709.53125 348.484375 C 709.535156 345.183594 709.542969 341.878906 709.550781 338.574219 L 709.5625 333.804688 C 709.570312 331.589844 709.578125 329.375 709.59375 327.160156 L 709.59375 325.148438 C 709.605469 323.609375 709.660156 322.070312 709.722656 320.53125 Z M 616.125 397.035156 C 617.480469 397.003906 618.835938 397.003906 620.195312 397.035156 L 621.007812 397.851562 C 621.089844 400.097656 621.117188 402.320312 621.113281 404.566406 L 621.117188 406.699219 C 621.121094 409.039062 621.121094 411.378906 621.117188 413.71875 C 621.117188 415.335938 621.117188 416.957031 621.117188 418.574219 C 621.117188 421.972656 621.117188 425.371094 621.113281 428.769531 C 621.109375 433.136719 621.113281 437.5 621.117188 441.863281 C 621.121094 445.207031 621.121094 448.554688 621.117188 451.898438 C 621.117188 453.507812 621.117188 455.117188 621.117188 456.726562 C 621.121094 458.972656 621.117188 461.21875 621.113281 463.464844 L 621.117188 465.496094 C 621.101562 470.101562 621.101562 470.101562 620.195312 471.914062 L 615.308594 471.101562 C 615.203125 463.914062 615.097656 456.722656 614.992188 449.535156 C 614.945312 446.195312 614.894531 442.855469 614.84375 439.515625 C 614.777344 435.058594 614.710938 430.601562 614.648438 426.144531 C 614.59375 422.71875 614.550781 419.296875 614.515625 415.875 C 614.496094 414.019531 614.460938 412.164062 614.429688 410.304688 L 614.382812 406.550781 L 614.34375 404.796875 C 614.324219 402.394531 614.40625 400.511719 615.316406 398.273438 Z M 789.484375 474.359375 C 791.46875 474.664062 791.46875 474.664062 793.554688 475.171875 C 794.578125 477.214844 794.472656 478.605469 794.476562 480.890625 L 794.484375 483.476562 L 794.476562 486.28125 L 794.480469 489.152344 C 794.480469 491.160156 794.480469 493.167969 794.476562 495.171875 C 794.472656 498.246094 794.476562 501.320312 794.480469 504.394531 C 794.480469 506.34375 794.480469 508.292969 794.476562 510.238281 L 794.484375 513.03125 L 794.472656 515.632812 L 794.472656 517.917969 C 794.371094 519.9375 794.371094 519.9375 793.554688 523.191406 L 768.324219 523.191406 L 768.324219 517.496094 C 772.535156 516.628906 776.566406 516.585938 780.839844 516.628906 L 782.890625 516.640625 C 784.546875 516.652344 786.203125 516.664062 787.859375 516.679688 L 787.847656 515.183594 C 787.8125 510.046875 787.785156 504.910156 787.769531 499.777344 C 787.761719 497.859375 787.75 495.941406 787.734375 494.023438 C 787.714844 491.269531 787.707031 488.515625 787.699219 485.761719 L 787.671875 483.15625 L 787.671875 480.738281 L 787.664062 478.605469 C 787.859375 476.800781 787.859375 476.800781 789.484375 474.359375 M 547.757812 396.222656 C 549.894531 396.988281 549.894531 396.988281 551.824219 397.851562 C 551.84375 407.386719 551.859375 416.925781 551.867188 426.460938 C 551.871094 430.890625 551.878906 435.316406 551.886719 439.742188 C 551.894531 444.011719 551.902344 448.28125 551.902344 452.550781 C 551.90625 454.183594 551.90625 455.816406 551.910156 457.449219 C 551.917969 459.726562 551.917969 462.007812 551.917969 464.285156 L 551.925781 466.351562 C 551.917969 467.9375 551.886719 469.519531 551.824219 471.101562 L 551.011719 471.914062 C 548.976562 472.015625 548.976562 472.015625 546.941406 471.914062 L 546.128906 471.101562 C 546.023438 468.921875 545.964844 466.742188 545.949219 464.5625 L 545.921875 462.484375 C 545.890625 460.203125 545.867188 457.925781 545.84375 455.648438 L 545.785156 450.910156 C 545.746094 447.597656 545.710938 444.28125 545.675781 440.964844 C 545.628906 436.714844 545.578125 432.464844 545.523438 428.214844 C 545.484375 424.953125 545.445312 421.6875 545.410156 418.425781 C 545.394531 416.859375 545.375 415.292969 545.355469 413.726562 C 545.328125 411.53125 545.304688 409.339844 545.285156 407.148438 L 545.257812 405.183594 C 545.214844 399.730469 545.214844 399.730469 546.128906 397.035156 Z M 271.027344 319.714844 L 275.914062 319.714844 L 275.914062 393.78125 L 271.84375 394.59375 L 270.214844 393.78125 C 270.195312 384.246094 270.183594 374.707031 270.171875 365.171875 C 270.167969 360.742188 270.164062 356.316406 270.152344 351.886719 C 270.144531 347.617188 270.140625 343.347656 270.136719 339.078125 C 270.136719 337.445312 270.132812 335.816406 270.128906 334.183594 C 270.125 331.902344 270.121094 329.625 270.121094 327.347656 L 270.113281 325.28125 C 270.117188 323.695312 270.160156 322.113281 270.214844 320.53125 Z M 537.988281 397.035156 C 539.617188 397.003906 541.246094 397.003906 542.871094 397.035156 C 542.890625 406.558594 542.90625 416.082031 542.914062 425.605469 C 542.917969 430.027344 542.925781 434.449219 542.933594 438.867188 C 542.941406 443.132812 542.949219 447.398438 542.949219 451.660156 C 542.953125 453.289062 542.953125 454.921875 542.957031 456.550781 C 542.964844 458.828125 542.964844 461.101562 542.964844 463.378906 L 542.972656 465.4375 C 542.964844 470.101562 542.964844 470.101562 542.058594 471.914062 L 537.175781 471.101562 C 537.15625 461.566406 537.144531 452.027344 537.132812 442.492188 C 537.128906 438.0625 537.125 433.636719 537.113281 429.207031 C 537.105469 424.941406 537.101562 420.671875 537.097656 416.402344 C 537.097656 414.769531 537.09375 413.136719 537.089844 411.503906 C 537.085938 409.222656 537.082031 406.945312 537.082031 404.667969 L 537.074219 402.601562 C 537.078125 401.015625 537.121094 399.433594 537.175781 397.851562 Z M 779.71875 319.714844 C 781.347656 319.683594 782.976562 319.679688 784.601562 319.714844 C 784.621094 329.238281 784.636719 338.761719 784.644531 348.285156 C 784.648438 352.707031 784.65625 357.125 784.664062 361.546875 C 784.671875 365.8125 784.679688 370.078125 784.679688 374.339844 C 784.683594 375.96875 784.683594 377.601562 784.6875 379.230469 C 784.695312 381.503906 784.695312 383.78125 784.695312 386.058594 L 784.703125 388.117188 C 784.695312 392.78125 784.695312 392.78125 783.789062 394.59375 L 778.90625 393.78125 C 778.886719 384.246094 778.871094 374.707031 778.863281 365.171875 C 778.859375 360.742188 778.851562 356.316406 778.84375 351.886719 C 778.835938 347.617188 778.832031 343.347656 778.828125 339.078125 C 778.828125 337.449219 778.824219 335.816406 778.820312 334.183594 C 778.816406 331.902344 778.8125 329.625 778.8125 327.347656 L 778.804688 325.28125 C 778.808594 323.695312 778.851562 322.113281 778.90625 320.53125 Z M 434.625 397.035156 C 436.660156 397.34375 436.660156 397.34375 438.691406 397.851562 L 439.507812 398.664062 C 439.585938 400.917969 439.609375 403.152344 439.601562 405.40625 L 439.601562 407.546875 C 439.601562 409.894531 439.59375 412.242188 439.585938 414.589844 L 439.582031 419.457031 C 439.578125 423.738281 439.574219 428.019531 439.5625 432.300781 C 439.554688 436.664062 439.550781 441.027344 439.546875 445.390625 C 439.539062 453.960938 439.523438 462.53125 439.507812 471.101562 C 437.886719 471.410156 436.257812 471.683594 434.625 471.914062 L 433.808594 471.101562 C 433.730469 468.835938 433.695312 466.566406 433.703125 464.296875 L 433.699219 462.136719 C 433.699219 459.765625 433.699219 457.398438 433.703125 455.027344 L 433.699219 450.109375 C 433.699219 446.667969 433.699219 443.230469 433.703125 439.789062 C 433.707031 435.367188 433.707031 430.949219 433.699219 426.527344 C 433.699219 423.140625 433.699219 419.753906 433.699219 416.367188 C 433.699219 414.738281 433.699219 413.109375 433.699219 411.476562 C 433.699219 409.203125 433.699219 406.929688 433.703125 404.652344 L 433.699219 402.59375 C 433.707031 401.011719 433.753906 399.429688 433.808594 397.851562 Z M 262.074219 397.035156 C 264.109375 396.933594 264.109375 396.933594 266.144531 397.035156 L 266.960938 397.851562 C 267.035156 400.128906 267.0625 402.386719 267.050781 404.667969 L 267.050781 406.832031 C 267.050781 409.207031 267.042969 411.582031 267.039062 413.953125 L 267.035156 418.878906 C 267.03125 423.207031 267.023438 427.535156 267.015625 431.863281 C 267.007812 436.277344 267.003906 440.691406 267 445.101562 C 266.992188 453.769531 266.976562 462.433594 266.960938 471.101562 L 262.074219 471.914062 C 260.753906 469.273438 261.148438 466.371094 261.15625 463.464844 L 261.152344 461.328125 C 261.148438 458.988281 261.148438 456.652344 261.152344 454.3125 C 261.152344 452.691406 261.152344 451.074219 261.152344 449.453125 C 261.148438 446.054688 261.152344 442.660156 261.15625 439.261719 C 261.160156 434.898438 261.160156 430.53125 261.152344 426.167969 C 261.148438 422.820312 261.148438 419.476562 261.152344 416.132812 C 261.152344 414.523438 261.152344 412.910156 261.152344 411.300781 C 261.148438 409.058594 261.152344 406.8125 261.15625 404.566406 L 261.152344 402.53125 C 261.15625 400.96875 261.203125 399.410156 261.261719 397.851562 Z M 98.480469 397.035156 L 103.363281 397.035156 L 103.363281 471.101562 L 97.667969 471.101562 C 97.648438 461.566406 97.632812 452.027344 97.625 442.492188 C 97.621094 438.0625 97.613281 433.636719 97.605469 429.207031 C 97.597656 424.941406 97.589844 420.671875 97.589844 416.402344 C 97.589844 414.769531 97.585938 413.136719 97.582031 411.503906 C 97.574219 409.222656 97.574219 406.945312 97.574219 404.667969 L 97.566406 402.601562 C 97.570312 401.015625 97.613281 399.433594 97.667969 397.851562 Z M 270.214844 397.035156 L 275.097656 397.035156 L 275.914062 397.851562 C 275.992188 400.070312 276.023438 402.269531 276.019531 404.492188 L 276.023438 406.601562 C 276.023438 408.914062 276.023438 411.226562 276.019531 413.539062 C 276.019531 415.140625 276.019531 416.742188 276.023438 418.34375 C 276.023438 421.703125 276.023438 425.0625 276.019531 428.421875 C 276.015625 432.738281 276.015625 437.050781 276.019531 441.367188 C 276.023438 444.675781 276.023438 447.980469 276.019531 451.289062 C 276.019531 452.878906 276.023438 454.472656 276.023438 456.0625 C 276.023438 458.285156 276.023438 460.507812 276.015625 462.726562 L 276.023438 464.734375 C 276.003906 469.289062 276.003906 469.289062 275.097656 471.101562 L 270.214844 471.101562 Z M 606.359375 397.851562 L 612.054688 397.851562 L 612.054688 471.101562 L 607.984375 471.914062 L 606.359375 471.101562 Z M 1133.769531 320.53125 C 1135.699219 320.429688 1135.699219 320.429688 1137.835938 320.53125 L 1139.464844 322.15625 C 1139.617188 324.414062 1139.671875 326.585938 1139.648438 328.84375 L 1139.648438 330.9375 C 1139.648438 333.226562 1139.636719 335.515625 1139.625 337.804688 L 1139.617188 342.5625 C 1139.609375 346.738281 1139.597656 350.917969 1139.578125 355.09375 C 1139.558594 359.355469 1139.550781 363.617188 1139.542969 367.875 C 1139.527344 376.238281 1139.5 384.605469 1139.464844 392.96875 C 1137.53125 393.832031 1137.53125 393.832031 1135.394531 394.59375 L 1133.769531 393.78125 C 1133.148438 369.335938 1132.738281 344.96875 1133.769531 320.53125 M 1056.445312 319.714844 L 1061.332031 321.34375 C 1061.347656 330.667969 1061.363281 339.992188 1061.371094 349.316406 C 1061.375 353.648438 1061.382812 357.976562 1061.390625 362.304688 C 1061.398438 366.480469 1061.40625 370.652344 1061.40625 374.828125 C 1061.410156 376.425781 1061.410156 378.019531 1061.414062 379.617188 C 1061.421875 381.84375 1061.421875 384.070312 1061.421875 386.300781 L 1061.429688 388.320312 C 1061.421875 389.871094 1061.390625 391.417969 1061.332031 392.96875 L 1060.515625 393.78125 C 1058.890625 393.8125 1057.261719 393.816406 1055.632812 393.78125 C 1055.613281 384.246094 1055.601562 374.707031 1055.589844 365.171875 C 1055.585938 360.742188 1055.582031 356.316406 1055.570312 351.886719 C 1055.5625 347.617188 1055.558594 343.347656 1055.554688 339.078125 C 1055.554688 337.445312 1055.550781 335.816406 1055.546875 334.183594 C 1055.542969 331.902344 1055.539062 329.625 1055.539062 327.347656 L 1055.53125 325.28125 C 1055.535156 323.695312 1055.578125 322.113281 1055.632812 320.53125 Z M 616.9375 474.359375 C 619.023438 474.613281 619.023438 474.613281 621.007812 475.171875 L 621.820312 475.984375 C 621.898438 477.429688 621.933594 478.875 621.925781 480.324219 L 621.933594 483.128906 L 621.929688 486.183594 L 621.933594 489.296875 C 621.933594 491.472656 621.929688 493.648438 621.925781 495.824219 C 621.925781 498.617188 621.925781 501.410156 621.929688 504.207031 C 621.933594 506.863281 621.929688 509.519531 621.929688 512.179688 L 621.933594 515.234375 L 621.925781 518.039062 L 621.925781 520.523438 L 621.820312 522.378906 L 621.007812 523.191406 C 619.203125 523.261719 617.394531 523.277344 615.585938 523.269531 L 613.949219 523.265625 C 612.214844 523.261719 610.480469 523.253906 608.746094 523.242188 C 607.574219 523.238281 606.402344 523.234375 605.230469 523.230469 C 602.351562 523.222656 599.46875 523.207031 596.589844 523.191406 L 595.777344 517.496094 L 615.308594 515.867188 L 615.253906 507.199219 C 615.242188 504.4375 615.230469 501.675781 615.222656 498.917969 C 615.210938 496.992188 615.203125 495.070312 615.1875 493.144531 C 615.167969 490.386719 615.160156 487.628906 615.152344 484.867188 L 615.125 482.25 L 615.125 479.832031 L 615.113281 477.695312 L 615.308594 475.984375 Z M 1064.585938 320.53125 L 1069.46875 320.53125 L 1069.46875 393.78125 L 1064.585938 393.78125 C 1063.53125 390.570312 1063.65625 387.332031 1063.667969 383.992188 L 1063.664062 382.007812 C 1063.660156 379.84375 1063.660156 377.679688 1063.664062 375.515625 L 1063.660156 371.003906 C 1063.660156 367.855469 1063.660156 364.703125 1063.667969 361.550781 C 1063.667969 357.511719 1063.667969 353.46875 1063.664062 349.429688 C 1063.660156 346.324219 1063.660156 343.21875 1063.664062 340.113281 C 1063.664062 338.621094 1063.664062 337.132812 1063.660156 335.640625 C 1063.660156 333.5625 1063.660156 331.480469 1063.667969 329.398438 L 1063.660156 327.527344 C 1063.671875 324.972656 1063.773438 322.972656 1064.585938 320.53125 " fill-opacity="1" fill-rule="nonzero"/><path fill="#1cf79a" d="M 251.496094 516.679688 C 252.894531 516.609375 254.296875 516.578125 255.695312 516.585938 L 258.414062 516.585938 L 261.367188 516.601562 L 264.375 516.605469 C 267.558594 516.609375 270.742188 516.621094 273.929688 516.628906 C 276.082031 516.632812 278.234375 516.636719 280.386719 516.640625 C 285.675781 516.648438 290.96875 516.664062 296.257812 516.679688 C 294.09375 517.800781 292.140625 518.609375 289.75 519.121094 C 291.445312 519.28125 293.140625 519.433594 294.835938 519.582031 L 297.695312 519.835938 C 299.957031 519.921875 301.449219 519.726562 303.585938 519.121094 L 304.398438 519.9375 C 305.671875 520.011719 306.949219 520.03125 308.226562 520.027344 L 310.695312 520.027344 L 313.378906 520.015625 L 316.113281 520.011719 C 319.007812 520.007812 321.902344 519.996094 324.796875 519.988281 C 326.753906 519.984375 328.710938 519.980469 330.667969 519.976562 C 335.476562 519.964844 340.285156 519.953125 345.09375 519.9375 L 344.28125 523.191406 L 251.496094 523.191406 L 250.679688 517.496094 Z M 251.496094 516.679688 " fill-opacity="1" fill-rule="nonzero"/><path fill="#13df8c" d="M 1100.398438 474.359375 C 1101.761719 474.582031 1103.121094 474.855469 1104.46875 475.171875 C 1104.484375 481.3125 1104.5 487.453125 1104.507812 493.59375 C 1104.511719 496.445312 1104.519531 499.296875 1104.527344 502.148438 C 1104.539062 505.421875 1104.542969 508.695312 1104.546875 511.972656 L 1104.558594 515.089844 L 1104.558594 517.953125 L 1104.566406 520.488281 L 1104.46875 522.378906 L 1103.652344 523.191406 C 1101.847656 523.261719 1100.039062 523.277344 1098.234375 523.269531 L 1096.59375 523.265625 C 1094.859375 523.261719 1093.128906 523.253906 1091.394531 523.242188 C 1090.222656 523.238281 1089.050781 523.234375 1087.875 523.230469 C 1084.996094 523.222656 1082.117188 523.207031 1079.234375 523.191406 L 1079.234375 517.496094 C 1085.417969 515.433594 1092.253906 516.679688 1098.769531 516.679688 L 1098.769531 475.171875 Z M 443.578125 474.359375 C 445.609375 474.253906 445.609375 474.253906 447.644531 474.359375 L 448.460938 475.171875 C 448.542969 476.582031 448.574219 477.996094 448.578125 479.410156 L 448.59375 482.148438 L 448.597656 485.136719 L 448.605469 488.179688 C 448.609375 490.3125 448.609375 492.441406 448.609375 494.570312 C 448.609375 496.761719 448.617188 498.949219 448.625 501.136719 C 448.644531 504.28125 448.644531 507.425781 448.648438 510.570312 L 448.664062 513.546875 L 448.65625 516.300781 L 448.660156 518.730469 C 448.460938 520.75 448.460938 520.75 446.832031 523.191406 C 444.554688 523.46875 444.554688 523.46875 441.6875 523.429688 L 438.589844 523.40625 L 435.335938 523.34375 C 434.246094 523.332031 433.15625 523.320312 432.0625 523.308594 C 429.390625 523.28125 426.714844 523.242188 424.042969 523.191406 L 423.230469 517.496094 C 425.574219 516.710938 427.035156 516.585938 429.46875 516.601562 L 431.671875 516.609375 L 433.960938 516.628906 L 436.28125 516.640625 C 438.171875 516.648438 440.058594 516.664062 441.949219 516.679688 L 441.972656 515.109375 C 442.0625 509.738281 442.15625 504.363281 442.25 498.988281 C 442.285156 496.984375 442.320312 494.976562 442.351562 492.96875 C 442.402344 490.089844 442.453125 487.210938 442.503906 484.332031 L 442.546875 481.59375 L 442.59375 479.074219 L 442.632812 476.84375 L 442.761719 475.171875 Z M 546.941406 474.359375 C 549.382812 474.253906 549.382812 474.253906 551.824219 474.359375 L 552.640625 475.171875 C 552.71875 476.585938 552.742188 478.003906 552.746094 479.421875 L 552.753906 482.171875 L 552.75 485.164062 L 552.75 488.214844 C 552.75 490.894531 552.75 493.578125 552.742188 496.261719 C 552.742188 497.90625 552.742188 499.550781 552.746094 501.199219 C 552.75 504.347656 552.75 507.5 552.75 510.648438 L 552.753906 513.636719 L 552.746094 516.394531 L 552.742188 518.828125 C 552.640625 520.75 552.640625 520.75 551.824219 522.378906 L 526.59375 522.378906 L 526.59375 517.496094 C 531.035156 516.753906 535.375 516.628906 539.871094 516.65625 L 541.699219 516.660156 C 543.175781 516.664062 544.652344 516.671875 546.128906 516.679688 L 546.121094 515.109375 C 546.105469 509.738281 546.09375 504.363281 546.082031 498.988281 C 546.078125 496.984375 546.074219 494.976562 546.066406 492.96875 C 546.058594 490.089844 546.054688 487.210938 546.046875 484.332031 L 546.035156 481.59375 L 546.035156 479.074219 L 546.03125 476.84375 L 546.128906 475.171875 Z M 89.527344 397.035156 C 91.5625 396.933594 91.5625 396.933594 93.597656 397.035156 L 94.410156 397.851562 C 94.488281 400.128906 94.515625 402.386719 94.503906 404.667969 L 94.503906 406.832031 C 94.503906 409.207031 94.496094 411.582031 94.492188 413.953125 L 94.488281 418.878906 C 94.484375 423.207031 94.476562 427.535156 94.46875 431.863281 C 94.460938 436.277344 94.453125 440.691406 94.453125 445.101562 C 94.441406 453.769531 94.429688 462.433594 94.410156 471.101562 C 93.0625 471.414062 91.707031 471.683594 90.34375 471.914062 L 89.527344 471.101562 C 89.394531 469.101562 89.316406 467.125 89.269531 465.125 L 89.21875 463.210938 C 89.164062 461.09375 89.117188 458.976562 89.070312 456.859375 L 89.019531 454.664062 C 88.71875 441.695312 88.625 428.730469 88.613281 415.757812 L 88.605469 413.054688 C 88.601562 410.53125 88.601562 408.007812 88.605469 405.480469 L 88.601562 403.171875 C 88.605469 401.398438 88.65625 399.625 88.714844 397.851562 Z M 445.203125 318.902344 L 448.460938 320.53125 L 448.460938 367.738281 L 423.230469 367.738281 L 423.230469 362.039062 L 441.949219 361.226562 L 442.039062 352.378906 C 442.078125 349.5625 442.121094 346.746094 442.164062 343.929688 C 442.1875 341.964844 442.210938 340.003906 442.230469 338.039062 C 442.257812 335.222656 442.300781 332.40625 442.347656 329.589844 L 442.363281 326.917969 L 442.410156 324.449219 L 442.4375 322.269531 L 442.761719 320.53125 Z M 720.304688 474.359375 C 721.9375 474.589844 723.566406 474.863281 725.1875 475.171875 C 725.207031 481.5 725.222656 487.832031 725.234375 494.164062 C 725.238281 496.316406 725.242188 498.472656 725.25 500.625 C 725.257812 503.71875 725.265625 506.8125 725.265625 509.90625 L 725.28125 512.835938 L 725.28125 515.550781 L 725.285156 517.941406 C 725.1875 519.9375 725.1875 519.9375 724.375 522.378906 L 699.957031 523.191406 L 699.144531 517.496094 C 701.871094 516.878906 704.375 516.582031 707.171875 516.601562 L 709.355469 516.609375 L 711.605469 516.628906 L 713.902344 516.640625 C 715.765625 516.648438 717.628906 516.664062 719.492188 516.679688 L 719.484375 515.109375 C 719.46875 509.738281 719.453125 504.363281 719.445312 498.988281 C 719.441406 496.984375 719.4375 494.976562 719.429688 492.96875 C 719.421875 490.089844 719.414062 487.210938 719.410156 484.332031 L 719.398438 481.59375 L 719.398438 479.074219 L 719.394531 476.84375 L 719.492188 475.171875 Z M 720.304688 474.359375 " fill-opacity="1" fill-rule="nonzero"/><path fill="#13df8c" d="M 538.804688 474.359375 C 540.839844 474.664062 540.839844 474.664062 542.871094 475.171875 L 543.6875 475.984375 C 543.765625 477.070312 543.792969 478.164062 543.792969 479.25 L 543.800781 481.351562 L 543.796875 483.632812 L 543.796875 485.96875 C 543.796875 487.601562 543.796875 489.230469 543.792969 490.863281 C 543.789062 493.367188 543.792969 495.867188 543.796875 498.367188 C 543.796875 499.949219 543.796875 501.535156 543.796875 503.117188 L 543.800781 505.390625 L 543.792969 507.507812 L 543.789062 509.367188 C 543.6875 510.984375 543.6875 510.984375 542.871094 513.425781 C 540.464844 513.445312 538.058594 513.464844 535.648438 513.476562 L 533.574219 513.496094 L 531.585938 513.503906 L 529.753906 513.515625 C 528.222656 513.425781 528.222656 513.425781 526.59375 512.609375 C 526.558594 510.984375 526.5625 509.355469 526.59375 507.726562 L 527.410156 506.914062 C 529.050781 506.722656 530.695312 506.578125 532.34375 506.457031 L 535.066406 506.25 L 537.175781 506.097656 L 537.164062 504.398438 C 537.011719 481.542969 537.011719 481.542969 537.988281 475.171875 Z M 1091.445312 474.359375 C 1093.480469 474.253906 1093.480469 474.253906 1095.515625 474.359375 L 1096.328125 475.171875 C 1096.402344 476.347656 1096.421875 477.523438 1096.421875 478.699219 L 1096.421875 480.972656 L 1096.40625 483.441406 L 1096.402344 485.957031 C 1096.398438 488.617188 1096.390625 491.28125 1096.378906 493.941406 C 1096.375 495.742188 1096.371094 497.542969 1096.367188 499.339844 C 1096.359375 503.765625 1096.34375 508.1875 1096.328125 512.609375 C 1093.769531 513.890625 1091.046875 513.542969 1088.242188 513.527344 L 1086.441406 513.535156 C 1083.828125 513.53125 1081.734375 513.445312 1079.234375 512.609375 C 1079.203125 510.984375 1079.203125 509.355469 1079.234375 507.726562 L 1080.050781 506.914062 C 1081.832031 506.859375 1083.609375 506.839844 1085.390625 506.863281 L 1088.34375 506.886719 L 1090.632812 506.914062 L 1090.617188 504.011719 C 1090.605469 500.472656 1090.59375 496.933594 1090.585938 493.394531 C 1090.582031 491.863281 1090.578125 490.328125 1090.570312 488.792969 C 1090.5625 486.59375 1090.554688 484.394531 1090.550781 482.195312 L 1090.539062 480.101562 C 1090.539062 478.457031 1090.578125 476.816406 1090.632812 475.171875 Z M 711.351562 474.359375 C 713.386719 474.253906 713.386719 474.253906 715.421875 474.359375 L 716.234375 475.171875 C 716.308594 476.347656 716.328125 477.523438 716.328125 478.699219 L 716.328125 480.972656 L 716.316406 483.441406 L 716.308594 485.957031 C 716.304688 488.617188 716.296875 491.28125 716.285156 493.941406 C 716.28125 495.742188 716.277344 497.542969 716.273438 499.339844 C 716.265625 503.765625 716.253906 508.1875 716.234375 512.609375 C 713.789062 513.832031 711.28125 513.542969 708.605469 513.527344 L 706.945312 513.535156 C 704.226562 513.53125 701.738281 513.449219 699.144531 512.609375 C 699.109375 510.984375 699.109375 509.355469 699.144531 507.726562 L 699.957031 506.914062 C 701.738281 506.859375 703.515625 506.839844 705.296875 506.863281 L 708.25 506.886719 L 710.539062 506.914062 L 710.523438 504.011719 C 710.511719 500.472656 710.5 496.933594 710.492188 493.394531 C 710.488281 491.863281 710.484375 490.328125 710.476562 488.792969 C 710.46875 486.59375 710.460938 484.394531 710.457031 482.195312 L 710.445312 480.101562 C 710.445312 478.457031 710.484375 476.816406 710.539062 475.171875 Z M 780.53125 474.359375 L 784.601562 475.171875 L 784.601562 513.425781 C 769.953125 513.425781 769.953125 513.425781 768.324219 512.609375 C 768.289062 510.984375 768.292969 509.355469 768.324219 507.726562 L 769.136719 506.914062 C 770.78125 506.855469 772.429688 506.84375 774.074219 506.863281 L 776.796875 506.886719 L 778.90625 506.914062 C 778.898438 505.984375 778.890625 505.058594 778.878906 504.101562 C 778.851562 500.664062 778.832031 497.226562 778.816406 493.789062 C 778.808594 492.300781 778.796875 490.8125 778.785156 489.320312 C 778.761719 487.183594 778.753906 485.046875 778.746094 482.910156 L 778.71875 480.886719 C 778.71875 479.25 778.804688 477.617188 778.90625 475.984375 Z M 435.4375 474.359375 L 439.507812 475.171875 L 439.507812 513.425781 C 424.855469 513.425781 424.855469 513.425781 423.230469 512.609375 C 423.195312 510.984375 423.195312 509.355469 423.230469 507.726562 L 424.042969 506.914062 C 425.6875 506.855469 427.332031 506.84375 428.976562 506.863281 L 431.703125 506.886719 L 433.808594 506.914062 C 433.800781 505.984375 433.792969 505.058594 433.785156 504.101562 C 433.753906 500.664062 433.734375 497.226562 433.71875 493.789062 C 433.710938 492.300781 433.699219 490.8125 433.6875 489.320312 C 433.667969 487.183594 433.660156 485.046875 433.652344 482.910156 L 433.625 480.886719 C 433.625 479.25 433.710938 477.617188 433.808594 475.984375 Z M 607.984375 474.359375 C 610.121094 474.253906 610.121094 474.253906 612.054688 474.359375 C 613.144531 478.390625 612.890625 482.347656 612.769531 486.480469 L 612.710938 488.816406 C 612.648438 491.269531 612.582031 493.726562 612.511719 496.179688 L 612.382812 501.183594 C 612.277344 505.261719 612.167969 509.34375 612.054688 513.425781 C 609.648438 513.46875 607.238281 513.503906 604.832031 513.527344 L 602.757812 513.566406 L 600.769531 513.582031 L 598.933594 513.609375 L 597.40625 513.425781 L 595.777344 511.796875 C 595.625 509.710938 595.625 509.710938 595.777344 507.726562 L 596.589844 506.914062 C 598.234375 506.855469 599.878906 506.84375 601.523438 506.863281 L 604.25 506.886719 L 606.359375 506.914062 C 606.347656 505.984375 606.339844 505.058594 606.332031 504.101562 C 606.300781 500.664062 606.285156 497.226562 606.269531 493.789062 C 606.257812 492.300781 606.25 490.8125 606.234375 489.320312 C 606.214844 487.183594 606.207031 485.046875 606.199219 482.910156 L 606.171875 480.886719 C 606.171875 479.25 606.257812 477.617188 606.359375 475.984375 Z M 434.625 320.53125 C 435.980469 320.496094 437.335938 320.496094 438.691406 320.53125 L 439.507812 321.34375 C 439.582031 322.492188 439.601562 323.648438 439.601562 324.796875 L 439.601562 327.019531 L 439.585938 329.433594 L 439.582031 331.894531 C 439.578125 334.5 439.566406 337.105469 439.558594 339.707031 C 439.554688 341.46875 439.550781 343.230469 439.546875 344.992188 C 439.539062 349.316406 439.523438 353.644531 439.507812 357.96875 L 423.230469 357.96875 L 423.230469 352.273438 L 433.808594 352.273438 L 433.796875 349.535156 C 433.78125 346.1875 433.773438 342.84375 433.765625 339.496094 C 433.761719 338.046875 433.753906 336.597656 433.75 335.148438 C 433.738281 333.066406 433.734375 330.984375 433.730469 328.90625 L 433.71875 326.933594 C 433.71875 322.34375 433.71875 322.34375 434.625 320.53125 M 1045.050781 429.59375 C 1046.148438 429.519531 1047.246094 429.484375 1048.34375 429.488281 L 1050.460938 429.480469 L 1052.757812 429.484375 L 1055.101562 429.480469 C 1056.742188 429.480469 1058.382812 429.484375 1060.023438 429.488281 C 1062.539062 429.492188 1065.058594 429.488281 1067.578125 429.480469 C 1069.167969 429.480469 1070.753906 429.484375 1072.34375 429.484375 L 1074.644531 429.480469 L 1076.757812 429.488281 L 1078.628906 429.488281 L 1080.050781 429.59375 L 1080.863281 430.40625 C 1080.898438 432.035156 1080.898438 433.664062 1080.863281 435.289062 C 1078.082031 436.683594 1074.898438 436.21875 1071.835938 436.210938 L 1069.609375 436.214844 C 1068.054688 436.214844 1066.5 436.214844 1064.945312 436.210938 C 1062.5625 436.207031 1060.175781 436.210938 1057.792969 436.214844 C 1056.285156 436.214844 1054.777344 436.214844 1053.269531 436.210938 L 1051.097656 436.21875 C 1046.054688 436.199219 1046.054688 436.199219 1044.238281 435.289062 C 1044.203125 433.664062 1044.207031 432.035156 1044.238281 430.40625 Z M 1045.050781 439.359375 C 1046.605469 439.164062 1046.605469 439.164062 1048.523438 439.175781 L 1050.699219 439.175781 L 1053.042969 439.199219 L 1055.445312 439.207031 C 1057.984375 439.214844 1060.523438 439.238281 1063.058594 439.257812 C 1064.777344 439.265625 1066.496094 439.273438 1068.214844 439.28125 C 1072.429688 439.296875 1076.648438 439.324219 1080.863281 439.359375 C 1080.898438 440.988281 1080.898438 442.617188 1080.863281 444.242188 L 1080.050781 445.058594 C 1078.007812 445.285156 1075.996094 445.449219 1073.945312 445.566406 L 1072.03125 445.675781 C 1063.035156 446.097656 1054.035156 445.539062 1045.050781 445.058594 L 1043.425781 440.988281 Z M 1045.050781 439.359375 " fill-opacity="1" fill-rule="nonzero"/><path fill="#1cf79a" d="M 79.761719 516.679688 L 80.851562 518.285156 C 82.800781 520.035156 82.800781 520.035156 84.746094 520.234375 C 87.039062 520.339844 89.3125 520.339844 91.605469 520.304688 L 94.253906 520.308594 C 97.140625 520.304688 100.03125 520.28125 102.917969 520.253906 C 104.921875 520.246094 106.925781 520.242188 108.925781 520.238281 C 114.199219 520.226562 119.46875 520.195312 124.742188 520.160156 C 130.121094 520.125 135.5 520.109375 140.878906 520.09375 C 151.4375 520.058594 161.992188 520.007812 172.546875 519.9375 L 172.546875 522.378906 L 78.132812 523.191406 L 77.320312 517.496094 Z M 620.195312 514.238281 L 621.820312 514.238281 C 621.84375 515.578125 621.859375 516.917969 621.871094 518.257812 L 621.902344 520.519531 L 621.820312 522.378906 L 621.007812 523.191406 C 619.203125 523.261719 617.394531 523.277344 615.585938 523.269531 L 613.949219 523.265625 C 612.214844 523.261719 610.480469 523.253906 608.746094 523.242188 C 607.574219 523.238281 606.402344 523.234375 605.230469 523.230469 C 602.351562 523.222656 599.46875 523.207031 596.589844 523.191406 L 595.777344 517.496094 L 600.660156 517.496094 L 601.472656 519.121094 C 603.71875 519.878906 605.898438 520.074219 608.253906 520.191406 L 610.222656 520.296875 L 612.257812 520.394531 L 614.332031 520.5 C 616.011719 520.585938 617.695312 520.667969 619.378906 520.75 Z M 768.324219 517.496094 C 769.851562 517.800781 769.851562 517.800781 771.582031 518.308594 L 773.207031 519.9375 C 776.175781 520.304688 779.171875 520.199219 782.160156 520.191406 L 784.6875 520.230469 L 787.09375 520.230469 L 789.3125 520.238281 L 791.113281 519.9375 L 792.742188 517.496094 L 794.371094 517.496094 L 793.554688 523.191406 L 768.324219 523.191406 Z M 423.230469 517.496094 L 425.671875 518.308594 L 425.671875 519.9375 L 446.019531 519.9375 L 446.832031 518.308594 L 448.460938 518.308594 C 448.214844 519.667969 447.941406 521.027344 447.644531 522.378906 L 446.832031 523.191406 C 445.144531 523.261719 443.457031 523.277344 441.765625 523.269531 L 438.660156 523.261719 L 435.386719 523.242188 C 434.292969 523.238281 433.199219 523.234375 432.105469 523.230469 C 429.417969 523.222656 426.730469 523.207031 424.042969 523.191406 Z M 526.59375 517.496094 L 532.292969 517.496094 L 531.476562 519.121094 C 533.601562 520.183594 535.164062 520.027344 537.539062 520.015625 L 540.191406 520.007812 L 542.976562 519.984375 L 545.773438 519.976562 C 548.0625 519.964844 550.351562 519.953125 552.640625 519.9375 L 551.824219 522.378906 L 526.59375 522.378906 Z M 699.144531 517.496094 L 701.585938 517.496094 L 701.585938 519.9375 C 704.925781 520.070312 708.265625 520.207031 711.605469 520.34375 L 714.484375 520.460938 L 717.242188 520.570312 L 719.789062 520.675781 C 721.316406 520.730469 722.84375 520.75 724.375 520.75 L 724.375 522.378906 L 699.957031 523.191406 Z M 1079.234375 518.308594 L 1080.503906 519.101562 C 1083.953125 520.546875 1087.648438 520.273438 1091.351562 520.390625 C 1092.1875 520.507812 1093.023438 520.625 1093.886719 520.75 L 1095.515625 523.191406 L 1079.234375 523.191406 Z M 788.671875 319.714844 L 792.742188 319.714844 L 794.371094 322.972656 L 788.671875 322.972656 Z M 445.203125 318.902344 L 447.644531 320.53125 C 446.578125 321.75 446.578125 321.75 445.203125 322.972656 L 442.761719 322.972656 C 443.066406 321.394531 443.066406 321.394531 443.578125 319.714844 Z M 445.203125 318.902344 " fill-opacity="1" fill-rule="nonzero"/><g transform="matrix(1, 0, 0, 1, 920, 540)"><g clip-path="url(#2c0eac8d86)"><g fill="#000000" fill-opacity="1"><g transform="translate(0.605566, 44.476237)"><g><path d="M 18.777344 1.175781 C 16.558594 1.175781 14.472656 0.75 12.515625 -0.09375 C 10.5625 -0.941406 8.84375 -2.121094 7.367188 -3.644531 C 5.890625 -5.164062 4.734375 -6.929688 3.898438 -8.945312 C 3.066406 -10.960938 2.648438 -13.140625 2.648438 -15.480469 C 2.648438 -17.820312 3.066406 -19.996094 3.898438 -22.011719 C 4.734375 -24.027344 5.890625 -25.789062 7.367188 -27.300781 C 8.847656 -28.808594 10.5625 -29.992188 12.515625 -30.847656 C 14.472656 -31.703125 16.558594 -32.132812 18.777344 -32.132812 C 20.996094 -32.132812 23.082031 -31.703125 25.027344 -30.847656 C 26.96875 -29.992188 28.679688 -28.808594 30.160156 -27.300781 C 31.636719 -25.789062 32.792969 -24.027344 33.625 -22.011719 C 34.460938 -19.996094 34.875 -17.820312 34.875 -15.480469 C 34.875 -13.140625 34.460938 -10.960938 33.625 -8.945312 C 32.792969 -6.929688 31.636719 -5.167969 30.160156 -3.660156 C 28.679688 -2.148438 26.96875 -0.964844 25.027344 -0.113281 C 23.082031 0.746094 20.996094 1.175781 18.777344 1.175781 Z M 18.777344 0.304688 C 20.875 0.304688 22.84375 -0.0976562 24.679688 -0.90625 C 26.519531 -1.714844 28.136719 -2.835938 29.539062 -4.265625 C 30.9375 -5.695312 32.03125 -7.367188 32.824219 -9.277344 C 33.613281 -11.1875 34.007812 -13.253906 34.007812 -15.480469 C 34.007812 -17.703125 33.613281 -19.769531 32.824219 -21.679688 C 32.03125 -23.59375 30.9375 -25.261719 29.539062 -26.691406 C 28.136719 -28.121094 26.519531 -29.242188 24.679688 -30.050781 C 22.84375 -30.859375 20.875 -31.265625 18.777344 -31.265625 C 16.679688 -31.265625 14.707031 -30.859375 12.863281 -30.050781 C 11.011719 -29.242188 9.386719 -28.121094 7.988281 -26.691406 C 6.589844 -25.261719 5.492188 -23.59375 4.703125 -21.679688 C 3.914062 -19.769531 3.519531 -17.703125 3.519531 -15.480469 C 3.519531 -13.253906 3.914062 -11.1875 4.703125 -9.277344 C 5.492188 -7.367188 6.589844 -5.691406 7.988281 -4.25 C 9.386719 -2.8125 11.011719 -1.691406 12.859375 -0.890625 C 14.707031 -0.09375 16.679688 0.304688 18.777344 0.304688 Z M 18.777344 -0.898438 C 20.710938 -0.898438 22.523438 -1.265625 24.21875 -2 C 25.910156 -2.738281 27.402344 -3.769531 28.6875 -5.097656 C 29.976562 -6.425781 30.984375 -7.972656 31.714844 -9.738281 C 32.441406 -11.507812 32.804688 -13.417969 32.804688 -15.480469 C 32.804688 -17.519531 32.441406 -19.421875 31.714844 -21.1875 C 30.984375 -22.957031 29.976562 -24.503906 28.6875 -25.832031 C 27.402344 -27.15625 25.910156 -28.195312 24.214844 -28.941406 C 22.523438 -29.6875 20.710938 -30.0625 18.777344 -30.0625 C 16.84375 -30.0625 15.035156 -29.6875 13.34375 -28.941406 C 11.644531 -28.195312 10.148438 -27.15625 8.851562 -25.828125 C 7.554688 -24.503906 6.542969 -22.957031 5.8125 -21.1875 C 5.085938 -19.421875 4.71875 -17.519531 4.71875 -15.480469 C 4.71875 -13.417969 5.085938 -11.507812 5.8125 -9.738281 C 6.542969 -7.972656 7.554688 -6.425781 8.851562 -5.097656 C 10.148438 -3.773438 11.644531 -2.738281 13.339844 -2 C 15.03125 -1.265625 16.84375 -0.898438 18.777344 -0.898438 Z M 18.777344 -0.0273438 C 16.722656 -0.0273438 14.796875 -0.421875 12.992188 -1.207031 C 11.195312 -1.988281 9.605469 -3.082031 8.230469 -4.492188 C 6.855469 -5.898438 5.78125 -7.539062 5.011719 -9.410156 C 4.238281 -11.28125 3.851562 -13.304688 3.851562 -15.480469 C 3.851562 -17.632812 4.238281 -19.648438 5.011719 -21.519531 C 5.78125 -23.390625 6.855469 -25.027344 8.230469 -26.4375 C 9.605469 -27.84375 11.191406 -28.941406 12.992188 -29.738281 C 14.792969 -30.53125 16.722656 -30.929688 18.777344 -30.929688 C 20.832031 -30.929688 22.761719 -30.53125 24.566406 -29.738281 C 26.363281 -28.941406 27.945312 -27.84375 29.3125 -26.433594 C 30.675781 -25.027344 31.746094 -23.390625 32.515625 -21.519531 C 33.289062 -19.648438 33.675781 -17.632812 33.675781 -15.480469 C 33.675781 -13.304688 33.289062 -11.28125 32.515625 -9.410156 C 31.746094 -7.539062 30.675781 -5.898438 29.3125 -4.492188 C 27.945312 -3.085938 26.363281 -1.988281 24.5625 -1.207031 C 22.761719 -0.421875 20.832031 -0.0273438 18.777344 -0.0273438 Z M 18.777344 -0.0273438 "/></g></g></g><g fill="#000000" fill-opacity="1"><g transform="translate(38.12633, 44.476237)"><g><path d="M 7.648438 0.433594 L 6.042969 0.433594 L 6.042969 -31.390625 L 8.082031 -31.390625 L 8.082031 -22.664062 L 7.648438 -22.664062 L 7.234375 -22.800781 C 7.832031 -24.609375 8.789062 -26.214844 10.105469 -27.617188 C 11.421875 -29.015625 12.996094 -30.121094 14.828125 -30.925781 C 16.660156 -31.730469 18.644531 -32.132812 20.78125 -32.132812 C 23.527344 -32.132812 25.882812 -31.601562 27.851562 -30.539062 C 29.835938 -29.464844 31.351562 -27.800781 32.402344 -25.542969 C 33.433594 -23.316406 33.953125 -20.457031 33.953125 -16.960938 L 33.953125 0.433594 L 31.910156 0.433594 L 31.910156 -16.960938 C 31.910156 -21.453125 30.9375 -24.761719 28.988281 -26.886719 C 27.050781 -29.003906 24.292969 -30.0625 20.722656 -30.0625 C 19.074219 -30.0625 17.492188 -29.75 15.984375 -29.125 C 14.472656 -28.496094 13.121094 -27.605469 11.925781 -26.453125 C 10.734375 -25.300781 9.792969 -23.941406 9.109375 -22.382812 C 8.421875 -20.824219 8.082031 -19.109375 8.082031 -17.238281 L 8.082031 0.433594 Z M 7.648438 -0.433594 L 7.648438 0 L 7.210938 0 L 7.210938 -17.238281 C 7.210938 -19.230469 7.578125 -21.0625 8.3125 -22.730469 C 9.046875 -24.394531 10.046875 -25.84375 11.324219 -27.078125 C 12.597656 -28.308594 14.039062 -29.257812 15.652344 -29.925781 C 17.269531 -30.59375 18.957031 -30.929688 20.722656 -30.929688 C 24.546875 -30.929688 27.519531 -29.777344 29.628906 -27.472656 C 31.730469 -25.179688 32.78125 -21.675781 32.78125 -16.960938 L 32.78125 0 L 32.347656 0 L 32.347656 -0.433594 L 33.519531 -0.433594 L 33.519531 0 L 33.082031 0 L 33.082031 -16.960938 C 33.082031 -20.328125 32.59375 -23.066406 31.613281 -25.179688 C 30.644531 -27.261719 29.253906 -28.792969 27.4375 -29.773438 C 25.601562 -30.769531 23.382812 -31.265625 20.78125 -31.265625 C 18.765625 -31.265625 16.898438 -30.886719 15.175781 -30.128906 C 13.453125 -29.371094 11.972656 -28.335938 10.738281 -27.023438 C 9.507812 -25.710938 8.613281 -24.214844 8.058594 -22.527344 L 7.210938 -22.664062 L 7.210938 -30.957031 L 7.648438 -30.957031 L 7.648438 -30.523438 L 6.476562 -30.523438 L 6.476562 -30.957031 L 6.910156 -30.957031 L 6.910156 0 L 6.476562 0 L 6.476562 -0.433594 Z M 7.648438 -0.433594 "/></g></g></g><g fill="#000000" fill-opacity="1"><g transform="translate(77.496925, 44.476237)"><g/></g></g><g fill="#000000" fill-opacity="1"><g transform="translate(93.528801, 44.476237)"><g><path d="M 24.699219 1.113281 C 22.226562 1.113281 19.886719 0.746094 17.683594 0.0117188 C 15.484375 -0.722656 13.484375 -1.761719 11.6875 -3.105469 C 9.894531 -4.449219 8.34375 -6.042969 7.03125 -7.890625 C 5.71875 -9.734375 4.714844 -11.765625 4.011719 -13.976562 C 3.308594 -16.1875 2.957031 -18.527344 2.957031 -21 C 2.957031 -23.46875 3.308594 -25.820312 4.011719 -28.050781 C 4.714844 -30.285156 5.71875 -32.324219 7.03125 -34.171875 C 8.339844 -36.015625 9.894531 -37.613281 11.6875 -38.96875 C 13.484375 -40.320312 15.480469 -41.367188 17.683594 -42.101562 C 19.886719 -42.835938 22.226562 -43.203125 24.699219 -43.203125 C 27.757812 -43.203125 30.5625 -42.675781 33.113281 -41.628906 C 35.667969 -40.574219 37.859375 -39.066406 39.679688 -37.097656 C 41.503906 -35.125 42.824219 -32.769531 43.648438 -30.035156 L 43.8125 -29.476562 L 41.707031 -29.476562 L 41.613281 -29.78125 C 40.871094 -32.183594 39.6875 -34.226562 38.0625 -35.914062 C 36.429688 -37.605469 34.476562 -38.902344 32.203125 -39.804688 C 29.917969 -40.710938 27.417969 -41.164062 24.699219 -41.164062 C 22.445312 -41.164062 20.324219 -40.832031 18.347656 -40.167969 C 16.367188 -39.503906 14.554688 -38.558594 12.917969 -37.332031 C 11.28125 -36.105469 9.871094 -34.652344 8.695312 -32.976562 C 7.519531 -31.296875 6.609375 -29.441406 5.964844 -27.417969 C 5.320312 -25.394531 4.996094 -23.257812 4.996094 -21 C 4.996094 -18.742188 5.320312 -16.605469 5.964844 -14.59375 C 6.609375 -12.582031 7.519531 -10.738281 8.695312 -9.070312 C 9.871094 -7.402344 11.277344 -5.957031 12.917969 -4.742188 C 14.554688 -3.527344 16.363281 -2.585938 18.347656 -1.921875 C 20.324219 -1.257812 22.445312 -0.925781 24.699219 -0.925781 C 27.417969 -0.925781 29.921875 -1.375 32.203125 -2.269531 C 34.476562 -3.160156 36.429688 -4.457031 38.0625 -6.160156 C 39.6875 -7.855469 40.875 -9.898438 41.613281 -12.277344 L 41.707031 -12.582031 L 43.84375 -12.582031 L 43.675781 -12.023438 C 42.855469 -9.289062 41.527344 -6.933594 39.695312 -4.960938 C 37.863281 -2.992188 35.667969 -1.488281 33.109375 -0.445312 C 30.5625 0.59375 27.757812 1.113281 24.699219 1.113281 Z M 24.699219 0.246094 C 27.644531 0.246094 30.339844 -0.253906 32.785156 -1.25 C 35.222656 -2.242188 37.3125 -3.679688 39.058594 -5.554688 C 40.800781 -7.425781 42.0625 -9.667969 42.84375 -12.273438 L 43.261719 -12.148438 L 43.261719 -11.714844 L 42.027344 -11.714844 L 42.027344 -12.148438 L 42.441406 -12.019531 C 41.660156 -9.507812 40.410156 -7.355469 38.6875 -5.558594 C 36.96875 -3.765625 34.914062 -2.398438 32.519531 -1.460938 C 30.136719 -0.527344 27.527344 -0.0585938 24.699219 -0.0585938 C 22.347656 -0.0585938 20.140625 -0.40625 18.070312 -1.097656 C 16 -1.792969 14.109375 -2.773438 12.398438 -4.046875 C 10.6875 -5.316406 9.214844 -6.824219 7.984375 -8.570312 C 6.757812 -10.3125 5.808594 -12.230469 5.136719 -14.328125 C 4.464844 -16.429688 4.128906 -18.652344 4.128906 -21 C 4.128906 -23.347656 4.464844 -25.574219 5.136719 -27.683594 C 5.808594 -29.789062 6.757812 -31.722656 7.984375 -33.472656 C 9.214844 -35.226562 10.683594 -36.746094 12.398438 -38.027344 C 14.109375 -39.308594 16 -40.296875 18.070312 -40.992188 C 20.140625 -41.683594 22.347656 -42.03125 24.699219 -42.03125 C 27.527344 -42.03125 30.136719 -41.558594 32.519531 -40.613281 C 34.914062 -39.664062 36.96875 -38.300781 38.6875 -36.515625 C 40.410156 -34.730469 41.664062 -32.570312 42.441406 -30.039062 L 42.027344 -29.910156 L 42.027344 -30.34375 L 43.230469 -30.34375 L 43.230469 -29.910156 L 42.816406 -29.785156 C 42.03125 -32.394531 40.773438 -34.632812 39.042969 -36.507812 C 37.308594 -38.382812 35.21875 -39.820312 32.78125 -40.824219 C 30.335938 -41.832031 27.644531 -42.332031 24.699219 -42.332031 C 22.320312 -42.332031 20.074219 -41.980469 17.960938 -41.277344 C 15.847656 -40.574219 13.929688 -39.570312 12.210938 -38.273438 C 10.488281 -36.976562 8.996094 -35.441406 7.738281 -33.667969 C 6.480469 -31.894531 5.515625 -29.9375 4.839844 -27.789062 C 4.164062 -25.644531 3.824219 -23.378906 3.824219 -21 C 3.824219 -18.617188 4.164062 -16.363281 4.839844 -14.238281 C 5.511719 -12.113281 6.480469 -10.164062 7.738281 -8.390625 C 8.996094 -6.621094 10.488281 -5.089844 12.207031 -3.800781 C 13.929688 -2.511719 15.847656 -1.515625 17.960938 -0.8125 C 20.074219 -0.109375 22.320312 0.246094 24.699219 0.246094 Z M 24.699219 0.246094 "/></g></g></g><g fill="#000000" fill-opacity="1"><g transform="translate(140.175401, 44.476237)"><g><path d="M 31.390625 0.433594 L 6.65625 0.433594 L 6.65625 -42.371094 L 8.699219 -42.371094 L 8.699219 -1.203125 L 8.265625 -1.203125 L 8.265625 -1.636719 L 31.824219 -1.636719 L 31.824219 0.433594 Z M 31.390625 -0.433594 L 31.390625 0 L 30.957031 0 L 30.957031 -1.203125 L 31.390625 -1.203125 L 31.390625 -0.769531 L 7.828125 -0.769531 L 7.828125 -41.9375 L 8.265625 -41.9375 L 8.265625 -41.5 L 7.09375 -41.5 L 7.09375 -41.9375 L 7.527344 -41.9375 L 7.527344 0 L 7.09375 0 L 7.09375 -0.433594 Z M 31.390625 -0.433594 "/></g></g></g><g fill="#000000" fill-opacity="1"><g transform="translate(172.794103, 44.476237)"><g><path d="M 6.65625 -42.371094 L 8.699219 -42.371094 L 8.699219 0.433594 L 6.65625 0.433594 Z M 7.527344 -41.5 L 7.527344 -0.433594 L 7.828125 -0.433594 L 7.828125 -41.5 Z M 7.527344 -41.5 "/></g></g></g><g fill="#ffffff" fill-opacity="1"><g transform="translate(0.605566, 44.476237)"><g><path d="M 18.78125 0.734375 C 16.625 0.734375 14.59375 0.320312 12.6875 -0.5 C 10.789062 -1.320312 9.117188 -2.472656 7.671875 -3.953125 C 6.234375 -5.429688 5.109375 -7.148438 4.296875 -9.109375 C 3.484375 -11.078125 3.078125 -13.203125 3.078125 -15.484375 C 3.078125 -17.765625 3.484375 -19.882812 4.296875 -21.84375 C 5.109375 -23.8125 6.234375 -25.53125 7.671875 -27 C 9.117188 -28.46875 10.789062 -29.617188 12.6875 -30.453125 C 14.59375 -31.285156 16.625 -31.703125 18.78125 -31.703125 C 20.9375 -31.703125 22.957031 -31.285156 24.84375 -30.453125 C 26.738281 -29.617188 28.40625 -28.46875 29.84375 -27 C 31.289062 -25.53125 32.421875 -23.8125 33.234375 -21.84375 C 34.046875 -19.882812 34.453125 -17.765625 34.453125 -15.484375 C 34.453125 -13.203125 34.046875 -11.078125 33.234375 -9.109375 C 32.421875 -7.148438 31.289062 -5.429688 29.84375 -3.953125 C 28.40625 -2.484375 26.738281 -1.332031 24.84375 -0.5 C 22.957031 0.320312 20.9375 0.734375 18.78125 0.734375 Z M 18.78125 -0.46875 C 20.769531 -0.46875 22.640625 -0.847656 24.390625 -1.609375 C 26.140625 -2.367188 27.675781 -3.429688 29 -4.796875 C 30.332031 -6.160156 31.375 -7.75 32.125 -9.5625 C 32.875 -11.382812 33.25 -13.359375 33.25 -15.484375 C 33.25 -17.578125 32.875 -19.53125 32.125 -21.34375 C 31.375 -23.164062 30.332031 -24.757812 29 -26.125 C 27.675781 -27.5 26.140625 -28.570312 24.390625 -29.34375 C 22.640625 -30.113281 20.769531 -30.5 18.78125 -30.5 C 16.789062 -30.5 14.921875 -30.113281 13.171875 -29.34375 C 11.421875 -28.570312 9.875 -27.5 8.53125 -26.125 C 7.195312 -24.757812 6.15625 -23.164062 5.40625 -21.34375 C 4.65625 -19.53125 4.28125 -17.578125 4.28125 -15.484375 C 4.28125 -13.359375 4.65625 -11.382812 5.40625 -9.5625 C 6.15625 -7.75 7.195312 -6.160156 8.53125 -4.796875 C 9.875 -3.429688 11.421875 -2.367188 13.171875 -1.609375 C 14.921875 -0.847656 16.789062 -0.46875 18.78125 -0.46875 Z M 18.78125 -0.46875 "/></g></g></g><g fill="#ffffff" fill-opacity="1"><g transform="translate(38.12633, 44.476237)"><g><path d="M 7.640625 0 L 6.46875 0 L 6.46875 -30.96875 L 7.640625 -30.96875 L 7.640625 -22.671875 C 8.222656 -24.410156 9.148438 -25.957031 10.421875 -27.3125 C 11.691406 -28.675781 13.21875 -29.75 15 -30.53125 C 16.78125 -31.3125 18.707031 -31.703125 20.78125 -31.703125 C 23.457031 -31.703125 25.742188 -31.1875 27.640625 -30.15625 C 29.546875 -29.132812 31 -27.535156 32 -25.359375 C 33.007812 -23.191406 33.515625 -20.390625 33.515625 -16.953125 L 33.515625 0 L 32.34375 0 L 32.34375 -16.953125 C 32.34375 -21.566406 31.332031 -24.976562 29.3125 -27.1875 C 27.289062 -29.394531 24.425781 -30.5 20.71875 -30.5 C 19.007812 -30.5 17.375 -30.175781 15.8125 -29.53125 C 14.25 -28.882812 12.851562 -27.960938 11.625 -26.765625 C 10.394531 -25.578125 9.421875 -24.175781 8.703125 -22.5625 C 7.992188 -20.945312 7.640625 -19.171875 7.640625 -17.234375 Z M 7.640625 0 "/></g></g></g><g fill="#ffffff" fill-opacity="1"><g transform="translate(77.496925, 44.476237)"><g/></g></g><g fill="#ffffff" fill-opacity="1"><g transform="translate(93.528801, 44.476237)"><g><path d="M 24.703125 0.671875 C 22.273438 0.671875 19.984375 0.3125 17.828125 -0.40625 C 15.671875 -1.125 13.710938 -2.140625 11.953125 -3.453125 C 10.191406 -4.765625 8.664062 -6.328125 7.375 -8.140625 C 6.09375 -9.953125 5.109375 -11.941406 4.421875 -14.109375 C 3.734375 -16.273438 3.390625 -18.570312 3.390625 -21 C 3.390625 -23.425781 3.734375 -25.734375 4.421875 -27.921875 C 5.109375 -30.109375 6.09375 -32.109375 7.375 -33.921875 C 8.664062 -35.734375 10.191406 -37.300781 11.953125 -38.625 C 13.710938 -39.945312 15.671875 -40.96875 17.828125 -41.6875 C 19.984375 -42.40625 22.273438 -42.765625 24.703125 -42.765625 C 27.703125 -42.765625 30.453125 -42.25 32.953125 -41.21875 C 35.453125 -40.195312 37.585938 -38.722656 39.359375 -36.796875 C 41.140625 -34.878906 42.429688 -32.582031 43.234375 -29.90625 L 42.03125 -29.90625 C 41.269531 -32.375 40.050781 -34.476562 38.375 -36.21875 C 36.695312 -37.957031 34.691406 -39.285156 32.359375 -40.203125 C 30.023438 -41.128906 27.472656 -41.59375 24.703125 -41.59375 C 22.398438 -41.59375 20.234375 -41.253906 18.203125 -40.578125 C 16.179688 -39.898438 14.332031 -38.929688 12.65625 -37.671875 C 10.976562 -36.421875 9.535156 -34.9375 8.328125 -33.21875 C 7.128906 -31.507812 6.203125 -29.617188 5.546875 -27.546875 C 4.890625 -25.484375 4.5625 -23.300781 4.5625 -21 C 4.5625 -18.695312 4.890625 -16.515625 5.546875 -14.453125 C 6.203125 -12.398438 7.128906 -10.519531 8.328125 -8.8125 C 9.535156 -7.113281 10.976562 -5.640625 12.65625 -4.390625 C 14.332031 -3.148438 16.179688 -2.191406 18.203125 -1.515625 C 20.234375 -0.835938 22.398438 -0.5 24.703125 -0.5 C 27.472656 -0.5 30.023438 -0.953125 32.359375 -1.859375 C 34.691406 -2.773438 36.695312 -4.109375 38.375 -5.859375 C 40.050781 -7.609375 41.269531 -9.707031 42.03125 -12.15625 L 43.265625 -12.15625 C 42.460938 -9.476562 41.164062 -7.175781 39.375 -5.25 C 37.59375 -3.332031 35.453125 -1.863281 32.953125 -0.84375 C 30.453125 0.164062 27.703125 0.671875 24.703125 0.671875 Z M 24.703125 0.671875 "/></g></g></g><g fill="#ffffff" fill-opacity="1"><g transform="translate(140.175401, 44.476237)"><g><path d="M 31.390625 0 L 7.09375 0 L 7.09375 -41.9375 L 8.265625 -41.9375 L 8.265625 -1.203125 L 31.390625 -1.203125 Z M 31.390625 0 "/></g></g></g><g fill="#ffffff" fill-opacity="1"><g transform="translate(172.794103, 44.476237)"><g><path d="M 8.265625 0 L 7.09375 0 L 7.09375 -41.9375 L 8.265625 -41.9375 Z M 8.265625 0 "/></g></g></g></g></g></svg>